<?xml version="1.0" encoding="UTF-8" standalone="no"?>
<svg
   width="64"
   height="64"
   shape-rendering="geometricPrecision"
   text-rendering="geometricPrecision"
   image-rendering="optimizeQuality"
   fill-rule="evenodd"
   clip-rule="evenodd"
   viewBox="0 0 640 640"
   version="1.1"
   id="svg4"
   sodipodi:docname="apple-icon.svg"
   inkscape:version="1.2.2 (b0a8486541, 2022-12-01)"
   xmlns:inkscape="http://www.inkscape.org/namespaces/inkscape"
   xmlns:sodipodi="http://sodipodi.sourceforge.net/DTD/sodipodi-0.dtd"
   xmlns="http://www.w3.org/2000/svg"
   xmlns:svg="http://www.w3.org/2000/svg">
  <defs
     id="defs8" />
  <sodipodi:namedview
     id="namedview6"
     pagecolor="#ffffff"
     bordercolor="#000000"
     borderopacity="0.25"
     inkscape:showpageshadow="2"
     inkscape:pageopacity="0.0"
     inkscape:pagecheckerboard="0"
     inkscape:deskcolor="#d1d1d1"
     showgrid="false"
     inkscape:zoom="11.609375"
     inkscape:cx="32"
     inkscape:cy="32"
     inkscape:window-width="1920"
     inkscape:window-height="1016"
     inkscape:window-x="0"
     inkscape:window-y="0"
     inkscape:window-maximized="1"
     inkscape:current-layer="svg4" />
  <path
     d="M494.782 340.02c-.803-81.025 66.084-119.907 69.072-121.832-37.595-54.993-96.167-62.552-117.037-63.402-49.843-5.032-97.242 29.362-122.565 29.362-25.253 0-64.277-28.607-105.604-27.85-54.32.803-104.4 31.594-132.403 80.245C29.81 334.457 71.81 479.58 126.816 558.976c26.87 38.882 58.914 82.56 100.997 81 40.512-1.594 55.843-26.244 104.848-26.244 48.993 0 62.753 26.245 105.64 25.406 43.606-.803 71.232-39.638 97.925-78.65 30.887-45.12 43.548-88.75 44.316-90.994-.969-.437-85.029-32.634-85.879-129.439l.118-.035zM414.23 102.178C436.553 75.095 451.636 37.5 447.514-.024c-32.162 1.311-71.163 21.437-94.253 48.485-20.729 24.012-38.836 62.28-33.993 99.036 35.918 2.8 72.591-18.248 94.926-45.272l.036-.047z"
     id="path2"
     style="fill:#3f36f4;fill-opacity:1" />
</svg>
